<?xml version="1.0" encoding="UTF-8"?>
<!DOCTYPE svg PUBLIC "-//W3C//DTD SVG 1.1//EN" "http://www.w3.org/Graphics/SVG/1.1/DTD/svg11.dtd">
<!-- Creator: CorelDRAW 2019 (64-Bit) -->
<svg xmlns="http://www.w3.org/2000/svg" xml:space="preserve" width="6.04124in" height="6.04124in" version="1.1" style="shape-rendering:geometricPrecision; text-rendering:geometricPrecision; image-rendering:optimizeQuality; fill-rule:evenodd; clip-rule:evenodd"
viewBox="0 0 1006.18 1006.18"
 xmlns:xlink="http://www.w3.org/1999/xlink"
 xmlns:xodm="http://www.corel.com/coreldraw/odm/2003">
 <defs>
  <style type="text/css">
   <![CDATA[
    .fil1 {fill:#FEFEFE;fill-rule:nonzero}
    .fil0 {fill:#2ABCB2;fill-rule:nonzero}
   ]]>
  </style>
 </defs>
 <g id="Layer_x0020_1">
  <metadata id="CorelCorpID_0Corel-Layer"/>
  <path class="fil0" d="M117.85 1006.18l770.5 0c65.07,0 117.84,-52.76 117.84,-117.85l0 -770.49c0,-65.08 -52.76,-117.84 -117.84,-117.84l-770.5 0c-65.09,0 -117.85,52.76 -117.85,117.84l0 770.49c0,65.08 52.76,117.85 117.85,117.85z"/>
  <path class="fil1" d="M733.73 532.45l0 197.97 -182.81 0 0 -156.29c0,-84.62 10.11,-145.87 30.33,-183.76 26.51,-50.52 68.49,-88.71 125.98,-114.62l41.68 66.31c-34.75,14.54 -60.33,36.16 -76.73,64.88 -16.42,28.74 -25.58,70.57 -27.48,125.51l89.04 0zm-293.63 0l0 197.97 -182.81 0 0 -156.29c0,-84.62 10.09,-145.87 30.31,-183.76 26.52,-50.52 68.51,-88.71 125.98,-114.62l41.68 66.31c-34.74,14.54 -60.31,36.16 -76.73,64.88 -16.43,28.74 -25.57,70.57 -27.47,125.51l89.04 0z"/>
 </g>
</svg>
